<mxfile host="app.diagrams.net" modified="2023-05-26T02:49:02.241Z" agent="Mozilla/5.0 (Windows NT 10.0; Win64; x64) AppleWebKit/537.36 (KHTML, like Gecko) Chrome/112.0.0.0 Safari/537.36" etag="W9IMGblK1Ef0Ed2YszkM" version="21.3.4" type="github">
  <diagram id="C5RBs43oDa-KdzZeNtuy" name="Page-1">
    <mxGraphModel dx="2780" dy="1014" grid="1" gridSize="10" guides="1" tooltips="1" connect="1" arrows="1" fold="1" page="1" pageScale="1" pageWidth="827" pageHeight="1169" math="0" shadow="0">
      <root>
        <mxCell id="WIyWlLk6GJQsqaUBKTNV-0" />
        <mxCell id="WIyWlLk6GJQsqaUBKTNV-1" parent="WIyWlLk6GJQsqaUBKTNV-0" />
        <mxCell id="_DV5pZ1egGBXhp707ExY-48" style="edgeStyle=orthogonalEdgeStyle;rounded=0;orthogonalLoop=1;jettySize=auto;html=1;exitX=1;exitY=0.75;exitDx=0;exitDy=0;entryX=-0.002;entryY=0.048;entryDx=0;entryDy=0;entryPerimeter=0;" edge="1" parent="WIyWlLk6GJQsqaUBKTNV-1" source="zkfFHV4jXpPFQw0GAbJ--0" target="_DV5pZ1egGBXhp707ExY-39">
          <mxGeometry relative="1" as="geometry" />
        </mxCell>
        <mxCell id="zkfFHV4jXpPFQw0GAbJ--0" value="FMinimalSceneTextures" style="swimlane;fontStyle=2;align=center;verticalAlign=top;childLayout=stackLayout;horizontal=1;startSize=26;horizontalStack=0;resizeParent=1;resizeLast=0;collapsible=1;marginBottom=0;rounded=0;shadow=0;strokeWidth=1;" parent="WIyWlLk6GJQsqaUBKTNV-1" vertex="1">
          <mxGeometry x="-810" y="40" width="370" height="320" as="geometry">
            <mxRectangle x="230" y="140" width="160" height="26" as="alternateBounds" />
          </mxGeometry>
        </mxCell>
        <mxCell id="_DV5pZ1egGBXhp707ExY-20" value="RDG blackboard struct containing the minimal set of scene textures common across all rendering configurations" style="rounded=0;whiteSpace=wrap;html=1;" vertex="1" parent="zkfFHV4jXpPFQw0GAbJ--0">
          <mxGeometry y="26" width="370" height="60" as="geometry" />
        </mxCell>
        <mxCell id="zkfFHV4jXpPFQw0GAbJ--1" value="FRDGTextureMSAA Color" style="text;align=left;verticalAlign=top;spacingLeft=4;spacingRight=4;overflow=hidden;rotatable=0;points=[[0,0.5],[1,0.5]];portConstraint=eastwest;" parent="zkfFHV4jXpPFQw0GAbJ--0" vertex="1">
          <mxGeometry y="86" width="370" height="26" as="geometry" />
        </mxCell>
        <mxCell id="zkfFHV4jXpPFQw0GAbJ--2" value="FRDGTextureMSAA Depth" style="text;align=left;verticalAlign=top;spacingLeft=4;spacingRight=4;overflow=hidden;rotatable=0;points=[[0,0.5],[1,0.5]];portConstraint=eastwest;rounded=0;shadow=0;html=0;" parent="zkfFHV4jXpPFQw0GAbJ--0" vertex="1">
          <mxGeometry y="112" width="370" height="26" as="geometry" />
        </mxCell>
        <mxCell id="zkfFHV4jXpPFQw0GAbJ--3" value="FRDGTextureSRVRef Stencil" style="text;align=left;verticalAlign=top;spacingLeft=4;spacingRight=4;overflow=hidden;rotatable=0;points=[[0,0.5],[1,0.5]];portConstraint=eastwest;rounded=0;shadow=0;html=0;" parent="zkfFHV4jXpPFQw0GAbJ--0" vertex="1">
          <mxGeometry y="138" width="370" height="26" as="geometry" />
        </mxCell>
        <mxCell id="_DV5pZ1egGBXhp707ExY-27" value="FCustomDepthTextures CustomDepth{};" style="rounded=0;whiteSpace=wrap;html=1;" vertex="1" parent="zkfFHV4jXpPFQw0GAbJ--0">
          <mxGeometry y="164" width="370" height="30" as="geometry" />
        </mxCell>
        <mxCell id="_DV5pZ1egGBXhp707ExY-23" value="TRDGUniformBufferRef&amp;lt;FSceneTextureUniformParameters&amp;gt; UniformBuffer{};" style="rounded=0;whiteSpace=wrap;html=1;" vertex="1" parent="zkfFHV4jXpPFQw0GAbJ--0">
          <mxGeometry y="194" width="370" height="30" as="geometry" />
        </mxCell>
        <mxCell id="_DV5pZ1egGBXhp707ExY-26" value="TRDGUniformBufferRef&amp;lt;FMobileSceneTextureUniformParameters&amp;gt; MobileUniformBuffer{};" style="rounded=0;whiteSpace=wrap;html=1;" vertex="1" parent="zkfFHV4jXpPFQw0GAbJ--0">
          <mxGeometry y="224" width="370" height="30" as="geometry" />
        </mxCell>
        <mxCell id="_DV5pZ1egGBXhp707ExY-0" value="FSceneTextureUniformParameters" style="swimlane;fontStyle=2;align=center;verticalAlign=top;childLayout=stackLayout;horizontal=1;startSize=26;horizontalStack=0;resizeParent=1;resizeLast=0;collapsible=1;marginBottom=0;rounded=0;shadow=0;strokeWidth=1;" vertex="1" parent="WIyWlLk6GJQsqaUBKTNV-1">
          <mxGeometry x="-330" y="370" width="240" height="350" as="geometry">
            <mxRectangle x="230" y="140" width="160" height="26" as="alternateBounds" />
          </mxGeometry>
        </mxCell>
        <mxCell id="_DV5pZ1egGBXhp707ExY-15" value="&lt;br&gt;&lt;span style=&quot;color: rgb(0, 0, 0); font-family: Helvetica; font-size: 12px; font-style: normal; font-variant-ligatures: normal; font-variant-caps: normal; font-weight: 400; letter-spacing: normal; orphans: 2; text-align: left; text-indent: 0px; text-transform: none; widows: 2; word-spacing: 0px; -webkit-text-stroke-width: 0px; background-color: rgb(251, 251, 251); text-decoration-thickness: initial; text-decoration-style: initial; text-decoration-color: initial; float: none; display: inline !important;&quot;&gt;A uniform buffer containing common scene textures used by materials or global shaders.&lt;br&gt;&lt;/span&gt;(Deferred에서 사용)&lt;br&gt;" style="rounded=0;whiteSpace=wrap;html=1;" vertex="1" parent="_DV5pZ1egGBXhp707ExY-0">
          <mxGeometry y="26" width="240" height="80" as="geometry" />
        </mxCell>
        <mxCell id="_DV5pZ1egGBXhp707ExY-1" value="Texture2D SceneColorTexture" style="text;align=left;verticalAlign=top;spacingLeft=4;spacingRight=4;overflow=hidden;rotatable=0;points=[[0,0.5],[1,0.5]];portConstraint=eastwest;strokeColor=default;" vertex="1" parent="_DV5pZ1egGBXhp707ExY-0">
          <mxGeometry y="106" width="240" height="26" as="geometry" />
        </mxCell>
        <mxCell id="_DV5pZ1egGBXhp707ExY-2" value="Texture2D SceneDepthTexture" style="text;align=left;verticalAlign=top;spacingLeft=4;spacingRight=4;overflow=hidden;rotatable=0;points=[[0,0.5],[1,0.5]];portConstraint=eastwest;rounded=0;shadow=0;html=0;strokeColor=default;" vertex="1" parent="_DV5pZ1egGBXhp707ExY-0">
          <mxGeometry y="132" width="240" height="26" as="geometry" />
        </mxCell>
        <mxCell id="_DV5pZ1egGBXhp707ExY-3" value="Texture2D GBufferATexture&#xa;....&#xa;Texture2D GBufferFTexture&#xa;Texture2D GBufferVelocityTexture&#xa;" style="text;align=left;verticalAlign=top;spacingLeft=4;spacingRight=4;overflow=hidden;rotatable=0;points=[[0,0.5],[1,0.5]];portConstraint=eastwest;rounded=0;shadow=0;html=0;strokeColor=default;" vertex="1" parent="_DV5pZ1egGBXhp707ExY-0">
          <mxGeometry y="158" width="240" height="62" as="geometry" />
        </mxCell>
        <mxCell id="_DV5pZ1egGBXhp707ExY-10" value="Texture2D ScreenSpaceAOTexture" style="text;align=left;verticalAlign=top;spacingLeft=4;spacingRight=4;overflow=hidden;rotatable=0;points=[[0,0.5],[1,0.5]];portConstraint=eastwest;rounded=0;shadow=0;html=0;strokeColor=default;" vertex="1" parent="_DV5pZ1egGBXhp707ExY-0">
          <mxGeometry y="220" width="240" height="20" as="geometry" />
        </mxCell>
        <mxCell id="_DV5pZ1egGBXhp707ExY-17" value="Texture2D CustomDepthTexture&#xa;Texture2D&lt;uint2&gt; CustomStencilTexture" style="text;align=left;verticalAlign=top;spacingLeft=4;spacingRight=4;overflow=hidden;rotatable=0;points=[[0,0.5],[1,0.5]];portConstraint=eastwest;strokeColor=default;" vertex="1" parent="_DV5pZ1egGBXhp707ExY-0">
          <mxGeometry y="240" width="240" height="50" as="geometry" />
        </mxCell>
        <mxCell id="_DV5pZ1egGBXhp707ExY-18" value="SamplerState PointClampSampler" style="text;align=left;verticalAlign=top;spacingLeft=4;spacingRight=4;overflow=hidden;rotatable=0;points=[[0,0.5],[1,0.5]];portConstraint=eastwest;strokeColor=default;" vertex="1" parent="_DV5pZ1egGBXhp707ExY-0">
          <mxGeometry y="290" width="240" height="30" as="geometry" />
        </mxCell>
        <mxCell id="_DV5pZ1egGBXhp707ExY-25" style="edgeStyle=orthogonalEdgeStyle;rounded=0;orthogonalLoop=1;jettySize=auto;html=1;exitX=1;exitY=0.5;exitDx=0;exitDy=0;entryX=-0.014;entryY=0.039;entryDx=0;entryDy=0;entryPerimeter=0;" edge="1" parent="WIyWlLk6GJQsqaUBKTNV-1" source="_DV5pZ1egGBXhp707ExY-23" target="_DV5pZ1egGBXhp707ExY-0">
          <mxGeometry relative="1" as="geometry" />
        </mxCell>
        <mxCell id="_DV5pZ1egGBXhp707ExY-28" value="FCustomDepthTextures" style="swimlane;fontStyle=2;align=center;verticalAlign=top;childLayout=stackLayout;horizontal=1;startSize=26;horizontalStack=0;resizeParent=1;resizeLast=0;collapsible=1;marginBottom=0;rounded=0;shadow=0;strokeWidth=1;" vertex="1" parent="WIyWlLk6GJQsqaUBKTNV-1">
          <mxGeometry x="-303" y="20" width="213" height="310" as="geometry">
            <mxRectangle x="230" y="140" width="160" height="26" as="alternateBounds" />
          </mxGeometry>
        </mxCell>
        <mxCell id="_DV5pZ1egGBXhp707ExY-37" style="edgeStyle=orthogonalEdgeStyle;rounded=0;orthogonalLoop=1;jettySize=auto;html=1;" edge="1" parent="_DV5pZ1egGBXhp707ExY-28" source="_DV5pZ1egGBXhp707ExY-29" target="_DV5pZ1egGBXhp707ExY-36">
          <mxGeometry relative="1" as="geometry" />
        </mxCell>
        <mxCell id="_DV5pZ1egGBXhp707ExY-29" value="커스텀 뎁스 텍스쳐&lt;br&gt;(5.0 에서는 Mobile용이 따로있었으나 5.1에서는 PC와 같은방식으로 SRVRef 사용하도록 수정됨)" style="rounded=0;whiteSpace=wrap;html=1;" vertex="1" parent="_DV5pZ1egGBXhp707ExY-28">
          <mxGeometry y="26" width="213" height="94" as="geometry" />
        </mxCell>
        <mxCell id="_DV5pZ1egGBXhp707ExY-36" value="&lt;div&gt;FRDGTextureRef Depth{};&lt;/div&gt;&lt;div&gt;&lt;span style=&quot;white-space: pre;&quot;&gt;&amp;nbsp;&amp;nbsp;&amp;nbsp;&amp;nbsp;&lt;/span&gt;FRDGTextureSRVRef Stencil{};&lt;/div&gt;&lt;div&gt;&lt;br&gt;&lt;/div&gt;&lt;div&gt;&lt;span style=&quot;&quot;&gt;&lt;span style=&quot;white-space: pre;&quot;&gt;&amp;nbsp;&amp;nbsp;&amp;nbsp;&amp;nbsp;&lt;/span&gt;&lt;/span&gt;FRDGTextureRef MobileDepth{};&lt;/div&gt;&lt;div&gt;&lt;span style=&quot;&quot;&gt;&lt;span style=&quot;white-space: pre;&quot;&gt;&amp;nbsp;&amp;nbsp;&amp;nbsp;&amp;nbsp;&lt;/span&gt;&lt;/span&gt;FRDGTextureRef MobileStencil{};&lt;/div&gt;" style="rounded=0;whiteSpace=wrap;html=1;" vertex="1" parent="_DV5pZ1egGBXhp707ExY-28">
          <mxGeometry y="120" width="213" height="120" as="geometry" />
        </mxCell>
        <mxCell id="_DV5pZ1egGBXhp707ExY-38" style="edgeStyle=orthogonalEdgeStyle;rounded=0;orthogonalLoop=1;jettySize=auto;html=1;exitX=1;exitY=0.5;exitDx=0;exitDy=0;entryX=0.01;entryY=0.029;entryDx=0;entryDy=0;entryPerimeter=0;" edge="1" parent="WIyWlLk6GJQsqaUBKTNV-1" source="_DV5pZ1egGBXhp707ExY-27" target="_DV5pZ1egGBXhp707ExY-28">
          <mxGeometry relative="1" as="geometry" />
        </mxCell>
        <mxCell id="_DV5pZ1egGBXhp707ExY-39" value="FMobileSceneTextureUniformParameters" style="swimlane;fontStyle=2;align=center;verticalAlign=top;childLayout=stackLayout;horizontal=1;startSize=26;horizontalStack=0;resizeParent=1;resizeLast=0;collapsible=1;marginBottom=0;rounded=0;shadow=0;strokeWidth=1;" vertex="1" parent="WIyWlLk6GJQsqaUBKTNV-1">
          <mxGeometry x="-330" y="760" width="410" height="320" as="geometry">
            <mxRectangle x="230" y="140" width="160" height="26" as="alternateBounds" />
          </mxGeometry>
        </mxCell>
        <mxCell id="_DV5pZ1egGBXhp707ExY-40" value="모바일용 SceneTextureUniformParameters" style="rounded=0;whiteSpace=wrap;html=1;" vertex="1" parent="_DV5pZ1egGBXhp707ExY-39">
          <mxGeometry y="26" width="410" height="80" as="geometry" />
        </mxCell>
        <mxCell id="_DV5pZ1egGBXhp707ExY-47" value="Texture2D SceneColorTexture&lt;br&gt;Texture2D SceneDepthTexture&lt;br&gt;Texture2D&amp;lt;uint2&amp;gt; CopiedSceneStencilTexture // AF_Mobile_Toon_Outline&lt;br&gt;&lt;br&gt;Texture2D CustomDepthTexture&lt;br&gt;Texture2D MobileCustomStencilTexture&lt;br&gt;&lt;br&gt;// Deferred ?&lt;br&gt;Texture2D SceneVelocityTexture&lt;br&gt;Texture2D&amp;nbsp;GBufferATexture&lt;br&gt;...&lt;br&gt;Texture2D&amp;nbsp;GBufferDTexture&lt;br&gt;Texture2D SceneDepthAuxTexture" style="rounded=0;whiteSpace=wrap;html=1;align=left;" vertex="1" parent="_DV5pZ1egGBXhp707ExY-39">
          <mxGeometry y="106" width="410" height="214" as="geometry" />
        </mxCell>
      </root>
    </mxGraphModel>
  </diagram>
</mxfile>
